# xmcd CD database file
#
# Track frame offsets:
#	150
#	16662
#	21008
#	33424
#	46224
#	67969
#	93045
#	108927
#	131092
#	145363
#	162377
#	177985
#	187460
#	200539
#
# Disc length: 2827 seconds
#
# Revision: 3
# Processed by: cddbd v1.5.2PL0 Copyright (c) Steve Scherf et al.
# Submitted via: CDex 1.51
#
DISCID=bd0b090e
DTITLE=Various Artist - Blues Breakers
DYEAR=2000
DGENRE=Blues
TTITLE0=Muddy Waters (Little Walter On Harmonica) -  Mannish Boy
TTITLE1=Mississippi John Hurt - C-h-i-c-k-e-n Blues
TTITLE2=John Lee Hooker - I'm In The Mood
TTITLE3=Elmore James - The Sky Is Crying
TTITLE4=Brownie McGhee and Sonny Terry - Blues For The Lowlands
TTITLE5=Ike and Tina Turner - All I Can Do Is Cry
TTITLE6=Lightnin' Hopkins - Coffee For Mama
TTITLE7=John Mayall - A Big Man
TTITLE8=Eric Clapton - Draggin' My Tail
TTITLE9=Etta James - Dust Your Broom
TTITLE10=Big Joe Williams - Nobody Knows You When Your Down And Out
TTITLE11=Canned Heat - Big Road Blues
TTITLE12=Nina Simone - Backlash Blues
TTITLE13=Lightning Slim - Ligtning's Bad Luck
EXTD=YEAR: 2000
EXTT0=
EXTT1=
EXTT2=
EXTT3=
EXTT4=
EXTT5=
EXTT6=
EXTT7=
EXTT8=
EXTT9=
EXTT10=
EXTT11=
EXTT12=
EXTT13=
PLAYORDER=
